<?xml version="1.0" encoding="UTF-8"?>
<svg xmlns="http://www.w3.org/2000/svg" xmlns:xlink="http://www.w3.org/1999/xlink" width="550" zoomAndPan="magnify" viewBox="0 0 412.5 317.249999" height="423" preserveAspectRatio="xMidYMid meet" version="1.0" style="background: transparent;"><defs><clipPath id="cb4f72805e"><path d="M 0.238281 0 L 411.765625 0 L 411.765625 316.5 L 0.238281 316.5 Z M 0.238281 0 " clip-rule="nonzero"/></clipPath><clipPath id="868a462f00"><path d="M 34 58 L 288 58 L 288 258 L 34 258 Z M 34 58 " clip-rule="nonzero"/></clipPath><clipPath id="cee9398340"><path d="M 3.089844 125.074219 L 283.46875 58.960938 L 314.722656 191.503906 L 34.34375 257.617188 Z M 3.089844 125.074219 " clip-rule="nonzero"/></clipPath><clipPath id="dc012d7f3b"><path d="M 3.089844 125.074219 L 283.46875 58.960938 L 314.722656 191.503906 L 34.34375 257.617188 Z M 3.089844 125.074219 " clip-rule="nonzero"/></clipPath><clipPath id="bfa452a039"><path d="M 0.238281 210 L 90 210 L 90 316.5 L 0.238281 316.5 Z M 0.238281 210 " clip-rule="nonzero"/></clipPath></defs><path stroke-linecap="butt" transform="matrix(0, 0.748231, -0.748231, 0, 68.84095, 250.292344)" fill="none" stroke-linejoin="miter" d="M 0.00083512 2.000986 L 50.092937 2.000986 " stroke="#ffffff" stroke-width="4" stroke-opacity="1" stroke-miterlimit="4"/><path fill="#03bc00" d="M 393.242188 9.597656 C 403.816406 4.605469 410.148438 -0.113281 409.625 11.558594 C 408.183594 43.636719 356.859375 238.839844 221.832031 283.078125 C 119.800781 316.503906 44.875 280.773438 21.914062 226.542969 C 4.605469 185.644531 24.746094 44.765625 169.121094 40.570312 C 259.144531 37.953125 307.695312 50.003906 393.242188 9.597656 Z M 393.242188 9.597656 " fill-opacity="1" fill-rule="evenodd"/><g clip-path="url(#868a462f00)"><g clip-path="url(#cee9398340)"><g clip-path="url(#dc012d7f3b)"><path fill="#ffffff" d="M 34.246094 257.210938 L 74.292969 202.589844 L 106.261719 214.949219 L 151.515625 135.78125 L 188.199219 165.402344 L 234.691406 96.972656 L 210.894531 81.421875 L 283.554688 58.980469 L 287.859375 132.183594 L 264.316406 115.816406 L 195.554688 196.59375 L 160.0625 172.035156 L 111.914062 238.917969 L 79.339844 224 Z M 34.246094 257.210938 " fill-opacity="1" fill-rule="evenodd"/></g></g></g><path stroke-linecap="butt" transform="matrix(0, 0.748231, -0.748231, 0, 113.730702, 237.68329)" fill="none" stroke-linejoin="miter" d="M 0.000406102 1.999819 L 79.620485 1.999819 " stroke="#ffffff" stroke-width="4" stroke-opacity="1" stroke-miterlimit="4"/><path stroke-linecap="butt" transform="matrix(0.0116117, 0.748141, -0.748141, 0.0116117, 202.109868, 188.880634)" fill="none" stroke-linejoin="miter" d="M -0.00202854 2.000376 L 128.874694 2.000891 " stroke="#ffffff" stroke-width="4" stroke-opacity="1" stroke-miterlimit="4"/><path stroke-linecap="butt" transform="matrix(0.00000000130591, 0.748231, -0.748231, 0.00000000130591, 160.87257, 166.066847)" fill="none" stroke-linejoin="miter" d="M -0.00058922 2.001481 L 175.3296 2.001481 " stroke="#ffffff" stroke-width="4" stroke-opacity="1" stroke-miterlimit="4"/><path stroke-linecap="butt" transform="matrix(0, 0.748231, -0.748231, 0, 266.411299, 111.318083)" fill="none" stroke-linejoin="miter" d="M -0.00224133 2.001035 L 201.086617 2.001035 " stroke="#ffffff" stroke-width="4" stroke-opacity="1" stroke-miterlimit="4"/><g clip-path="url(#bfa452a039)"><path stroke-linecap="butt" transform="matrix(0.608041, -0.436046, 0.436046, 0.608041, 0.23663, 281.685841)" fill="none" stroke-linejoin="miter" d="M 0.000804919 5.001425 L 73.925336 5.001578 " stroke="#03bc00" stroke-width="10" stroke-opacity="1" stroke-miterlimit="4"/></g></svg>